# xmcd
#
# Track frame offsets: 
#        373
#        15974
#        28992
#        47028
#        56766
#        66129
#        76629
#        87942
#        96589
#        102306
#        119788
#        137118
#        153715
#        166701
#        180101
#        197252
#        213823
#        227352
#        240163
#
# Disc length: 3354 seconds
#
# Revision: 0
# Processed by: cddbd v1.5.2PL0 Copyright (c) Steve Scherf et al.
# Submitted via: ExactAudioCopy v0.99pb4
#
DISCID=ea0d1613
DTITLE=Werner Specht - Mach's jetzt
DYEAR=2003
DGENRE=Vocal
TTITLE0=Mach's jetzt
TTITLE1=Bergwealt
TTITLE2=Fantasie
TTITLE3=Seiteschprung
TTITLE4=de Mächler
TTITLE5='s Goldliecht
TTITLE6=Summrdromm
TTITLE7=Kässchpatze
TTITLE8=De Katalog
TTITLE9=Claudia
TTITLE10=Wisses Papier
TTITLE11=Umweag
TTITLE12=Augeblick
TTITLE13='s Johr isch olt
TTITLE14=deas hure Geald
TTITLE15=d' Muttr
TTITLE16=Morge isch wit
TTITLE17=Wintrnacht
TTITLE18=Handyman
EXTD=
EXTT0=
EXTT1=
EXTT2=
EXTT3=
EXTT4=
EXTT5=
EXTT6=
EXTT7=
EXTT8=
EXTT9=
EXTT10=
EXTT11=
EXTT12=
EXTT13=
EXTT14=
EXTT15=
EXTT16=
EXTT17=
EXTT18=
PLAYORDER=
